<?xml version="1.0" standalone="no"?><!DOCTYPE svg PUBLIC "-//W3C//DTD SVG 1.1//EN" "http://www.w3.org/Graphics/SVG/1.1/DTD/svg11.dtd"><svg t="1731565714848" class="icon" viewBox="0 0 1024 1024" version="1.1" xmlns="http://www.w3.org/2000/svg" p-id="5966" width="24" height="24" xmlns:xlink="http://www.w3.org/1999/xlink"><path d="M721.066667 499.2H302.933333c-25.6 0-42.666667-17.066667-42.666666-42.666667s17.066667-42.666667 42.666666-42.666666h418.133334c25.6 0 42.666667 17.066667 42.666666 42.666666s-21.333333 42.666667-42.666666 42.666667zM721.066667 661.333333H302.933333c-25.6 0-42.666667-17.066667-42.666666-42.666666s17.066667-42.666667 42.666666-42.666667h418.133334c25.6 0 42.666667 17.066667 42.666666 42.666667s-21.333333 42.666667-42.666666 42.666666zM456.533333 337.066667H302.933333c-25.6 0-42.666667-17.066667-42.666666-42.666667s17.066667-42.666667 42.666666-42.666667h153.6c25.6 0 42.666667 17.066667 42.666667 42.666667s-21.333333 42.666667-42.666667 42.666667zM375.466667 819.2H302.933333c-25.6 0-42.666667-17.066667-42.666666-42.666667s17.066667-42.666667 42.666666-42.666666h72.533334c25.6 0 42.666667 17.066667 42.666666 42.666666s-21.333333 42.666667-42.666666 42.666667z" fill="#8a8a8a" p-id="5967"></path><path d="M942.933333 307.2c0-12.8-4.266667-21.333333-12.8-29.866667L648.533333 12.8c-4.266667-8.533333-17.066667-12.8-25.6-12.8H119.466667c-25.6 0-42.666667 17.066667-42.666667 42.666667v938.666666c0 25.6 17.066667 42.666667 42.666667 42.666667h780.8c25.6 0 42.666667-17.066667 42.666666-42.666667V307.2c4.266667 0 0 0 0 0z m-277.333333-166.4l128 119.466667h-128V140.8zM162.133333 938.666667V85.333333h413.866667v221.866667c0 12.8 4.266667 21.333333 12.8 29.866667 8.533333 8.533333 17.066667 12.8 29.866667 12.8h238.933333V938.666667H162.133333z" fill="#8a8a8a" p-id="5968"></path></svg>